<mxfile host="app.diagrams.net" agent="Mozilla/5.0 (Windows NT 10.0; Win64; x64) AppleWebKit/537.36 (KHTML, like Gecko) Chrome/130.0.0.0 Safari/537.36 Edg/130.0.0.0" version="24.7.6">
  <diagram name="Page-1" id="kWocohOELPK9wQ3LVutg">
    <mxGraphModel dx="1162" dy="773" grid="1" gridSize="10" guides="1" tooltips="1" connect="1" arrows="1" fold="1" page="1" pageScale="1" pageWidth="850" pageHeight="1100" math="0" shadow="0">
      <root>
        <mxCell id="0" />
        <mxCell id="1" parent="0" />
        <mxCell id="ZCdc2D--i8_qWXBVDp-w-7" value="" style="edgeStyle=orthogonalEdgeStyle;rounded=0;orthogonalLoop=1;jettySize=auto;html=1;" edge="1" parent="1" source="ZCdc2D--i8_qWXBVDp-w-1" target="ZCdc2D--i8_qWXBVDp-w-6">
          <mxGeometry relative="1" as="geometry" />
        </mxCell>
        <mxCell id="ZCdc2D--i8_qWXBVDp-w-1" value="MAIN" style="html=1;dashed=0;whiteSpace=wrap;shape=mxgraph.dfd.start" vertex="1" parent="1">
          <mxGeometry x="318" y="50" width="215" height="60" as="geometry" />
        </mxCell>
        <mxCell id="ZCdc2D--i8_qWXBVDp-w-11" value="" style="edgeStyle=orthogonalEdgeStyle;rounded=0;orthogonalLoop=1;jettySize=auto;html=1;" edge="1" parent="1" source="ZCdc2D--i8_qWXBVDp-w-6" target="ZCdc2D--i8_qWXBVDp-w-10">
          <mxGeometry relative="1" as="geometry" />
        </mxCell>
        <mxCell id="ZCdc2D--i8_qWXBVDp-w-13" value="" style="edgeStyle=orthogonalEdgeStyle;rounded=0;orthogonalLoop=1;jettySize=auto;html=1;" edge="1" parent="1" source="ZCdc2D--i8_qWXBVDp-w-6" target="ZCdc2D--i8_qWXBVDp-w-12">
          <mxGeometry relative="1" as="geometry" />
        </mxCell>
        <mxCell id="ZCdc2D--i8_qWXBVDp-w-6" value="&#xa;&lt;b id=&quot;docs-internal-guid-baea023c-7fff-12b6-3a81-397b67b8ee17&quot; style=&quot;font-weight:normal;&quot;&gt;&lt;p style=&quot;line-height:1.38;margin-top:0pt;margin-bottom:0pt;&quot; dir=&quot;ltr&quot;&gt;&lt;span style=&quot;font-size:11pt;font-family:Arial,sans-serif;color:#000000;background-color:transparent;font-weight:400;font-style:normal;font-variant:normal;text-decoration:none;vertical-align:baseline;white-space:pre;white-space:pre-wrap;&quot;&gt;Display &quot;Enter a month in the year (e.g., 1 for Jan): &quot;&lt;/span&gt;&lt;/p&gt;&lt;/b&gt;&lt;br class=&quot;Apple-interchange-newline&quot;&gt;&#xa;&#xa;" style="whiteSpace=wrap;html=1;dashed=0;" vertex="1" parent="1">
          <mxGeometry x="130" y="200" width="395" height="135" as="geometry" />
        </mxCell>
        <mxCell id="ZCdc2D--i8_qWXBVDp-w-10" value="&lt;span id=&quot;docs-internal-guid-8ad9795c-7fff-1e85-22c9-ffd9a7b3e537&quot;&gt;&lt;span style=&quot;font-size: 11pt; font-family: Arial, sans-serif; background-color: transparent; font-variant-numeric: normal; font-variant-east-asian: normal; font-variant-alternates: normal; font-variant-position: normal; vertical-align: baseline; white-space-collapse: preserve;&quot;&gt;Input int for month&lt;/span&gt;&lt;/span&gt;" style="shape=parallelogram;perimeter=parallelogramPerimeter;whiteSpace=wrap;html=1;fixedSize=1;dashed=0;" vertex="1" parent="1">
          <mxGeometry x="600" y="237.5" width="120" height="60" as="geometry" />
        </mxCell>
        <mxCell id="ZCdc2D--i8_qWXBVDp-w-15" value="" style="edgeStyle=orthogonalEdgeStyle;rounded=0;orthogonalLoop=1;jettySize=auto;html=1;" edge="1" parent="1" source="ZCdc2D--i8_qWXBVDp-w-12" target="ZCdc2D--i8_qWXBVDp-w-14">
          <mxGeometry relative="1" as="geometry" />
        </mxCell>
        <mxCell id="ZCdc2D--i8_qWXBVDp-w-17" value="" style="edgeStyle=orthogonalEdgeStyle;rounded=0;orthogonalLoop=1;jettySize=auto;html=1;" edge="1" parent="1" source="ZCdc2D--i8_qWXBVDp-w-12" target="ZCdc2D--i8_qWXBVDp-w-16">
          <mxGeometry relative="1" as="geometry" />
        </mxCell>
        <mxCell id="ZCdc2D--i8_qWXBVDp-w-12" value="&lt;span id=&quot;docs-internal-guid-a0bbb72a-7fff-9572-74cd-94d755f0af7a&quot;&gt;&lt;p style=&quot;line-height:1.38;margin-top:0pt;margin-bottom:0pt;&quot; dir=&quot;ltr&quot;&gt;&lt;span style=&quot;font-size: 11pt; font-family: Arial, sans-serif; background-color: transparent; font-variant-numeric: normal; font-variant-east-asian: normal; font-variant-alternates: normal; font-variant-position: normal; vertical-align: baseline; white-space-collapse: preserve;&quot;&gt;Display &quot;Enter a year: &quot;&lt;/span&gt;&lt;/p&gt;&lt;div&gt;&lt;span style=&quot;font-size: 11pt; font-family: Arial, sans-serif; background-color: transparent; font-variant-numeric: normal; font-variant-east-asian: normal; font-variant-alternates: normal; font-variant-position: normal; vertical-align: baseline; white-space-collapse: preserve;&quot;&gt;&lt;br&gt;&lt;/span&gt;&lt;/div&gt;&lt;/span&gt;" style="whiteSpace=wrap;html=1;dashed=0;" vertex="1" parent="1">
          <mxGeometry x="135" y="410" width="390" height="97.5" as="geometry" />
        </mxCell>
        <mxCell id="ZCdc2D--i8_qWXBVDp-w-14" value="&lt;span id=&quot;docs-internal-guid-4f32083d-7fff-1276-71a8-1ba8f84c7fc8&quot;&gt;&lt;p style=&quot;line-height:1.38;margin-top:0pt;margin-bottom:0pt;&quot; dir=&quot;ltr&quot;&gt;&lt;span style=&quot;font-size: 11pt; font-family: Arial, sans-serif; background-color: transparent; font-variant-numeric: normal; font-variant-east-asian: normal; font-variant-alternates: normal; font-variant-position: normal; vertical-align: baseline; white-space-collapse: preserve;&quot;&gt;Input int for year&lt;/span&gt;&lt;/p&gt;&lt;div&gt;&lt;span style=&quot;font-size: 11pt; font-family: Arial, sans-serif; background-color: transparent; font-variant-numeric: normal; font-variant-east-asian: normal; font-variant-alternates: normal; font-variant-position: normal; vertical-align: baseline; white-space-collapse: preserve;&quot;&gt;&lt;br&gt;&lt;/span&gt;&lt;/div&gt;&lt;/span&gt;" style="shape=parallelogram;perimeter=parallelogramPerimeter;whiteSpace=wrap;html=1;fixedSize=1;dashed=0;" vertex="1" parent="1">
          <mxGeometry x="570" y="360" width="180" height="50" as="geometry" />
        </mxCell>
        <mxCell id="ZCdc2D--i8_qWXBVDp-w-19" value="" style="edgeStyle=orthogonalEdgeStyle;rounded=0;orthogonalLoop=1;jettySize=auto;html=1;" edge="1" parent="1" source="ZCdc2D--i8_qWXBVDp-w-16" target="ZCdc2D--i8_qWXBVDp-w-18">
          <mxGeometry relative="1" as="geometry" />
        </mxCell>
        <mxCell id="ZCdc2D--i8_qWXBVDp-w-23" value="" style="edgeStyle=orthogonalEdgeStyle;rounded=0;orthogonalLoop=1;jettySize=auto;html=1;" edge="1" parent="1" source="ZCdc2D--i8_qWXBVDp-w-16" target="ZCdc2D--i8_qWXBVDp-w-22">
          <mxGeometry relative="1" as="geometry" />
        </mxCell>
        <mxCell id="ZCdc2D--i8_qWXBVDp-w-16" value="&#xa;&lt;b id=&quot;docs-internal-guid-b3a20438-7fff-ffdf-9f76-468179de80f0&quot; style=&quot;font-weight:normal;&quot;&gt;&lt;span style=&quot;font-size:11pt;font-family:Arial,sans-serif;color:#000000;background-color:transparent;font-weight:400;font-style:normal;font-variant:normal;text-decoration:none;vertical-align:baseline;white-space:pre;white-space:pre-wrap;&quot;&gt;if month is 2&lt;/span&gt;&lt;/b&gt;&#xa;&#xa;" style="rhombus;whiteSpace=wrap;html=1;dashed=0;" vertex="1" parent="1">
          <mxGeometry x="135" y="559.69" width="130" height="113.75" as="geometry" />
        </mxCell>
        <mxCell id="ZCdc2D--i8_qWXBVDp-w-21" value="" style="edgeStyle=orthogonalEdgeStyle;rounded=0;orthogonalLoop=1;jettySize=auto;html=1;" edge="1" parent="1" source="ZCdc2D--i8_qWXBVDp-w-18" target="ZCdc2D--i8_qWXBVDp-w-20">
          <mxGeometry relative="1" as="geometry" />
        </mxCell>
        <mxCell id="ZCdc2D--i8_qWXBVDp-w-18" value="&#xa;&lt;b id=&quot;docs-internal-guid-927a8531-7fff-7f03-f9ae-a29936d2ff15&quot; style=&quot;font-weight:normal;&quot;&gt;&lt;span style=&quot;font-size:11pt;font-family:Arial,sans-serif;color:#000000;background-color:transparent;font-weight:400;font-style:normal;font-variant:normal;text-decoration:none;vertical-align:baseline;white-space:pre;white-space:pre-wrap;&quot;&gt;Evaluate (year % 4 == 0 &amp;amp;&amp;amp; year % 100 != 0) || year % 400 == 0&lt;/span&gt;&lt;/b&gt;&#xa;&#xa;" style="rhombus;whiteSpace=wrap;html=1;dashed=0;" vertex="1" parent="1">
          <mxGeometry x="310" y="528.44" width="175" height="176.25" as="geometry" />
        </mxCell>
        <mxCell id="ZCdc2D--i8_qWXBVDp-w-20" value="&lt;span id=&quot;docs-internal-guid-a05bcb4c-7fff-6b0d-72eb-795209f36392&quot;&gt;&lt;p style=&quot;line-height:1.38;text-indent: 36pt;margin-top:0pt;margin-bottom:0pt;&quot; dir=&quot;ltr&quot;&gt;&lt;span style=&quot;font-size: 11pt; font-family: Arial, sans-serif; background-color: transparent; font-variant-numeric: normal; font-variant-east-asian: normal; font-variant-alternates: normal; font-variant-position: normal; vertical-align: baseline; white-space-collapse: preserve;&quot;&gt;If true numOfDays is 29 else 28&lt;/span&gt;&lt;/p&gt;&lt;div&gt;&lt;span style=&quot;font-size: 11pt; font-family: Arial, sans-serif; background-color: transparent; font-variant-numeric: normal; font-variant-east-asian: normal; font-variant-alternates: normal; font-variant-position: normal; vertical-align: baseline; white-space-collapse: preserve;&quot;&gt;&lt;br&gt;&lt;/span&gt;&lt;/div&gt;&lt;/span&gt;" style="whiteSpace=wrap;html=1;dashed=0;" vertex="1" parent="1">
          <mxGeometry x="530" y="570" width="220" height="93.13" as="geometry" />
        </mxCell>
        <mxCell id="ZCdc2D--i8_qWXBVDp-w-25" value="" style="edgeStyle=orthogonalEdgeStyle;rounded=0;orthogonalLoop=1;jettySize=auto;html=1;" edge="1" parent="1" source="ZCdc2D--i8_qWXBVDp-w-22" target="ZCdc2D--i8_qWXBVDp-w-24">
          <mxGeometry relative="1" as="geometry" />
        </mxCell>
        <mxCell id="ZCdc2D--i8_qWXBVDp-w-29" value="" style="edgeStyle=orthogonalEdgeStyle;rounded=0;orthogonalLoop=1;jettySize=auto;html=1;" edge="1" parent="1" source="ZCdc2D--i8_qWXBVDp-w-22" target="ZCdc2D--i8_qWXBVDp-w-28">
          <mxGeometry relative="1" as="geometry" />
        </mxCell>
        <mxCell id="ZCdc2D--i8_qWXBVDp-w-22" value="&lt;span id=&quot;docs-internal-guid-151a4c71-7fff-2792-21d6-1270a855a605&quot;&gt;&lt;span style=&quot;font-size: 11pt; font-family: Arial, sans-serif; background-color: transparent; font-variant-numeric: normal; font-variant-east-asian: normal; font-variant-alternates: normal; font-variant-position: normal; vertical-align: baseline; white-space-collapse: preserve;&quot;&gt;Else&lt;/span&gt;&lt;/span&gt;" style="rhombus;whiteSpace=wrap;html=1;dashed=0;" vertex="1" parent="1">
          <mxGeometry x="135" y="753.44" width="130" height="113.75" as="geometry" />
        </mxCell>
        <mxCell id="ZCdc2D--i8_qWXBVDp-w-27" value="" style="edgeStyle=orthogonalEdgeStyle;rounded=0;orthogonalLoop=1;jettySize=auto;html=1;" edge="1" parent="1" source="ZCdc2D--i8_qWXBVDp-w-24" target="ZCdc2D--i8_qWXBVDp-w-26">
          <mxGeometry relative="1" as="geometry" />
        </mxCell>
        <mxCell id="ZCdc2D--i8_qWXBVDp-w-24" value="&lt;span id=&quot;docs-internal-guid-0354f49f-7fff-54c3-4a18-550bfbcd63ae&quot;&gt;&lt;p style=&quot;line-height:1.38;margin-top:0pt;margin-bottom:0pt;&quot; dir=&quot;ltr&quot;&gt;&lt;span style=&quot;font-size: 11pt; font-family: Arial, sans-serif; background-color: transparent; font-variant-numeric: normal; font-variant-east-asian: normal; font-variant-alternates: normal; font-variant-position: normal; vertical-align: baseline; white-space-collapse: preserve;&quot;&gt;Evaluate month % 2 == 0&lt;/span&gt;&lt;/p&gt;&lt;div&gt;&lt;span style=&quot;font-size: 11pt; font-family: Arial, sans-serif; background-color: transparent; font-variant-numeric: normal; font-variant-east-asian: normal; font-variant-alternates: normal; font-variant-position: normal; vertical-align: baseline; white-space-collapse: preserve;&quot;&gt;&lt;br&gt;&lt;/span&gt;&lt;/div&gt;&lt;/span&gt;" style="rhombus;whiteSpace=wrap;html=1;dashed=0;" vertex="1" parent="1">
          <mxGeometry x="290" y="722.0400000000001" width="215" height="176.56" as="geometry" />
        </mxCell>
        <mxCell id="ZCdc2D--i8_qWXBVDp-w-26" value="&lt;span id=&quot;docs-internal-guid-aa635b17-7fff-9315-fdd3-f3db874e291d&quot;&gt;&lt;p style=&quot;line-height:1.38;margin-top:0pt;margin-bottom:0pt;&quot; dir=&quot;ltr&quot;&gt;&lt;span style=&quot;font-size: 11pt; font-family: Arial, sans-serif; background-color: transparent; font-variant-numeric: normal; font-variant-east-asian: normal; font-variant-alternates: normal; font-variant-position: normal; vertical-align: baseline; white-space-collapse: preserve;&quot;&gt;If true numOfDays is 30 else 31&lt;/span&gt;&lt;/p&gt;&lt;div&gt;&lt;span style=&quot;font-size: 11pt; font-family: Arial, sans-serif; background-color: transparent; font-variant-numeric: normal; font-variant-east-asian: normal; font-variant-alternates: normal; font-variant-position: normal; vertical-align: baseline; white-space-collapse: preserve;&quot;&gt;&lt;br&gt;&lt;/span&gt;&lt;/div&gt;&lt;/span&gt;" style="whiteSpace=wrap;html=1;dashed=0;" vertex="1" parent="1">
          <mxGeometry x="562.5" y="770.48" width="187.5" height="79.68" as="geometry" />
        </mxCell>
        <mxCell id="ZCdc2D--i8_qWXBVDp-w-28" value="&lt;span id=&quot;docs-internal-guid-d8a1fd5e-7fff-ffc1-f9f5-96738d15030b&quot;&gt;&lt;p style=&quot;line-height:1.38;margin-top:0pt;margin-bottom:0pt;&quot; dir=&quot;ltr&quot;&gt;&lt;span style=&quot;font-size: 11pt; font-family: Arial, sans-serif; background-color: transparent; font-variant-numeric: normal; font-variant-east-asian: normal; font-variant-alternates: normal; font-variant-position: normal; vertical-align: baseline; white-space-collapse: preserve;&quot;&gt;Display “Month year has numOfDays”&lt;/span&gt;&lt;/p&gt;&lt;div&gt;&lt;span style=&quot;font-size: 11pt; font-family: Arial, sans-serif; background-color: transparent; font-variant-numeric: normal; font-variant-east-asian: normal; font-variant-alternates: normal; font-variant-position: normal; vertical-align: baseline; white-space-collapse: preserve;&quot;&gt;&lt;br&gt;&lt;/span&gt;&lt;/div&gt;&lt;/span&gt;" style="whiteSpace=wrap;html=1;dashed=0;" vertex="1" parent="1">
          <mxGeometry x="140" y="974.07" width="330" height="55.93" as="geometry" />
        </mxCell>
      </root>
    </mxGraphModel>
  </diagram>
</mxfile>
